<svg xmlns="http://www.w3.org/2000/svg" width="10.87" height="10.87" viewBox="0 0 10.87 10.87">
  <g id="Group_10" data-name="Group 10" transform="translate(-466 -65.216)">
    <path id="Path_8" data-name="Path 8" d="M14.764,8.371h-.438V8.348H9.435v2.174h3.072A3.264,3.264,0,1,1,11.6,7l1.537-1.537A5.429,5.429,0,1,0,14.87,9.435,5.472,5.472,0,0,0,14.764,8.371Z" transform="translate(462 61.216)" fill="#1c4932"/>
    <path id="Path_9" data-name="Path 9" d="M6.306,6.905l1.786,1.31A3.254,3.254,0,0,1,13.278,7l1.537-1.537A5.424,5.424,0,0,0,6.306,6.905Z" transform="translate(460.321 61.216)" fill="#1c4932"/>
    <path id="Path_10" data-name="Path 10" d="M11.034,32.387a5.41,5.41,0,0,0,3.644-1.411L13,29.553a3.253,3.253,0,0,1-5.028-1.5L6.2,29.42A5.431,5.431,0,0,0,11.034,32.387Z" transform="translate(460.401 43.698)" fill="#1c4932"/>
    <path id="Path_11" data-name="Path 11" d="M29.329,20.023h-.438V20H24v2.174h3.072a3.272,3.272,0,0,1-1.111,1.514h0l1.682,1.423a5.257,5.257,0,0,0,1.791-4.024A5.472,5.472,0,0,0,29.329,20.023Z" transform="translate(447.435 49.564)" fill="#1c4932"/>
  </g>
</svg>
